<svg xmlns="http://www.w3.org/2000/svg" viewBox="5039 5128 535 535" width="535" height="535" data-guides="{&quot;vertical&quot;:[],&quot;horizontal&quot;:[]}"><ellipse fill="#ffffff" fill-opacity="1" stroke="#000000" stroke-opacity="1" stroke-width="1" id="tSvg1219219b72" title="Ellipse 1" cx="5297.235294117647" cy="5383.5" rx="234.2352941176473" ry="229.5" style="transform: rotate(0deg); transform-origin: 5297.24px 5383.5px;"/><path fill="rgb(65, 173, 73)" stroke="#ffffff" fill-opacity="1" stroke-width="1" stroke-opacity="1" id="tSvgcfd760f8d5" title="Path 1" d="M 5562 5396 C 5562 5254.6 5447.4 5140 5306 5140C 5164.6 5140 5050 5254.6 5050 5396C 5050 5537.4 5164.6 5652 5306 5652C 5447.4 5652 5562 5537.4 5562 5396C 5562 5396 5562 5396 5562 5396ZM 5501.7 5296.3 C 5421.3667 5376.6333 5341.0333 5456.9667 5260.7 5537.3C 5260.7 5537.3 5260.7 5537.3 5260.7 5537.3C 5254.9667 5543.0333 5249.2333 5548.7667 5243.5 5554.5C 5199.1 5510.1 5154.7 5465.7 5110.3 5421.3C 5129.9 5401.7 5149.5 5382.1 5169.1 5362.5C 5193.9333 5387.3333 5218.7667 5412.1667 5243.6 5437C 5310.0667 5370.5333 5376.5333 5304.0667 5443 5237.6C 5462.5667 5257.1667 5482.1333 5276.7333 5501.7 5296.3"/><defs/></svg>